<svg width="128" height="128" viewBox="0 0 128 128" fill="none" xmlns="http://www.w3.org/2000/svg">
<path d="M98.5 0H28.5C18.835 0 11 7.81467 11 17.4545V110.545C11 120.185 18.835 128 28.5 128H98.5C108.165 128 116 120.185 116 110.545V17.4545C116 7.81467 108.165 0 98.5 0Z" fill="#1E1E1E"/>
<path d="M63.5 52.1667C77.9975 52.1667 89.75 46.9434 89.75 40.5C89.75 34.0567 77.9975 28.8334 63.5 28.8334C49.0025 28.8334 37.25 34.0567 37.25 40.5C37.25 46.9434 49.0025 52.1667 63.5 52.1667Z" stroke="#FFC981" stroke-width="2"/>
<path d="M53.3964 46.3332C60.6451 58.8884 71.0449 66.4547 76.625 63.233C82.2051 60.0114 80.8524 47.2217 73.6036 34.6665C66.3549 22.1113 55.9551 14.545 50.375 17.7667C44.7949 20.9883 46.1476 33.778 53.3964 46.3332Z" stroke="#FFC981" stroke-width="2"/>
<path d="M73.6036 46.3333C80.8524 33.7781 82.2051 20.9884 76.625 17.7668C71.0449 14.5451 60.6451 22.1114 53.3964 34.6666C46.1476 47.2218 44.7949 60.0115 50.375 63.2331C55.9551 66.4548 66.3549 58.8885 73.6036 46.3333Z" stroke="#FFC981" stroke-width="2"/>
<path d="M63.5 45.6042C66.3189 45.6042 68.6041 43.319 68.6041 40.5C68.6041 37.6811 66.3189 35.3959 63.5 35.3959C60.681 35.3959 58.3958 37.6811 58.3958 40.5C58.3958 43.319 60.681 45.6042 63.5 45.6042Z" fill="#FFF3B0"/>
<path d="M31.5 81C33.9853 81 36 78.9853 36 76.5C36 74.0147 33.9853 72 31.5 72C29.0147 72 27 74.0147 27 76.5C27 78.9853 29.0147 81 31.5 81Z" fill="#EAEAEA"/>
<path d="M57.6 72H44.4C41.9699 72 40 74.0147 40 76.5C40 78.9853 41.9699 81 44.4 81H57.6C60.0301 81 62 78.9853 62 76.5C62 74.0147 60.0301 72 57.6 72Z" fill="#EAEAEA"/>
<path d="M31.5 99C33.9853 99 36 96.9853 36 94.5C36 92.0147 33.9853 90 31.5 90C29.0147 90 27 92.0147 27 94.5C27 96.9853 29.0147 99 31.5 99Z" fill="#EAEAEA"/>
<path d="M93.65 90H44.35C41.9476 90 40 92.0147 40 94.5C40 96.9853 41.9476 99 44.35 99H93.65C96.0524 99 98 96.9853 98 94.5C98 92.0147 96.0524 90 93.65 90Z" fill="#EAEAEA"/>
<path d="M31.5 116C33.9853 116 36 113.985 36 111.5C36 109.015 33.9853 107 31.5 107C29.0147 107 27 109.015 27 111.5C27 113.985 29.0147 116 31.5 116Z" fill="#EAEAEA"/>
<path d="M71.68 107H44.32C41.9341 107 40 109.015 40 111.5C40 113.985 41.9341 116 44.32 116H71.68C74.0659 116 76 113.985 76 111.5C76 109.015 74.0659 107 71.68 107Z" fill="#EAEAEA"/>
</svg>
